<svg xmlns="http://www.w3.org/2000/svg" width="64" height="43" viewBox="0 0 64 43">
  <g fill="none" fill-rule="evenodd" transform="translate(1 1)">
    <path stroke="#696969" stroke-width="2" d="M0,0 L62,0 L62,41 L0,41 L0,0 Z M0,6 L62,6 L0,6 Z"/>
    <path fill="#EC3A3A" d="M4.85,2.883 C4.85,3.417 4.417,3.85 3.883,3.85 C3.349,3.85 2.917,3.417 2.917,2.883 C2.917,2.349 3.349,1.917 3.883,1.917 C4.417,1.917 4.85,2.349 4.85,2.883"/>
    <path fill="#FCEE21" d="M6.883,3.85 C6.349,3.85 5.917,3.417 5.917,2.883 C5.917,2.349 6.349,1.917 6.883,1.917 C7.417,1.917 7.85,2.349 7.85,2.883 C7.85,3.417 7.417,3.85 6.883,3.85 Z"/>
    <path fill="#2DD547" d="M10.85,2.883 C10.85,3.417 10.417,3.85 9.883,3.85 C9.349,3.85 8.917,3.417 8.917,2.883 C8.917,2.349 9.349,1.917 9.883,1.917 C10.417,1.917 10.85,2.349 10.85,2.883"/>
    <polyline fill="#FE2591" points="47.635 34.211 47.635 35.869 41.74 33.315 41.74 31.897 47.635 29.342 47.635 31.012 43.527 32.594 47.635 34.211"/>
    <path fill="#FE2591" d="M51.279,29.307 L49.639,36.063 C49.584,36.285 49.536,36.461 49.495,36.59 C49.454,36.719 49.392,36.819 49.308,36.892 C49.224,36.964 49.102,37 48.941,37 C48.543,37 48.344,36.828 48.344,36.484 C48.344,36.395 48.383,36.17 48.461,35.81 L50.096,29.055 C50.182,28.695 50.264,28.449 50.342,28.316 C50.42,28.184 50.572,28.117 50.799,28.117 C50.994,28.117 51.144,28.164 51.247,28.258 C51.351,28.352 51.402,28.481 51.402,28.645 C51.402,28.766 51.361,28.986 51.279,29.307"/>
    <polyline fill="#FE2591" points="58 33.315 52.105 35.881 52.105 34.223 56.225 32.606 52.105 31.012 52.105 29.365 58 31.908 58 33.315"/>
    <polygon fill="#535BB7" points="4 10 58 10 58 13 4 13"/>
    <polygon fill="#535BB7" points="4 16 58 16 58 19 4 19"/>
    <polygon fill="#535BB7" points="4 22 58 22 58 25 4 25"/>
  </g>
</svg>
